<svg width="20" height="20" viewBox="0 0 20 20" fill="none" xmlns="http://www.w3.org/2000/svg">
<path d="M14.166 10H2.49935C2.27834 10 2.06637 10.0878 1.91009 10.2441C1.75381 10.4004 1.66602 10.6123 1.66602 10.8333V12.5C1.66602 12.721 1.75381 12.933 1.91009 13.0893C2.06637 13.2455 2.27834 13.3333 2.49935 13.3333H14.166" stroke="#4A5565" stroke-width="1.66667" stroke-linecap="round" stroke-linejoin="round"/>
<path d="M15.0007 6.66667C15.0007 4.58333 13.334 4.58333 13.334 2.5" stroke="#4A5565" stroke-width="1.66667" stroke-linecap="round" stroke-linejoin="round"/>
<path d="M17.5 13.3333C17.721 13.3333 17.933 13.2455 18.0893 13.0893C18.2455 12.933 18.3333 12.721 18.3333 12.5V10.8333C18.3333 10.6123 18.2455 10.4004 18.0893 10.2441C17.933 10.0878 17.721 10 17.5 10" stroke="#4A5565" stroke-width="1.66667" stroke-linecap="round" stroke-linejoin="round"/>
<path d="M18.3327 6.66667C18.3327 4.58333 16.666 4.58333 16.666 2.5" stroke="#4A5565" stroke-width="1.66667" stroke-linecap="round" stroke-linejoin="round"/>
<path d="M5.83398 10V13.3333" stroke="#4A5565" stroke-width="1.66667" stroke-linecap="round" stroke-linejoin="round"/>
</svg>
