<svg width="20" height="20" viewBox="0 0 20 20" fill="none" xmlns="http://www.w3.org/2000/svg">
<path d="M9.375 13.543H10.625L10 14.168L9.375 13.543Z" stroke="#4A5565" stroke-width="1.66667" stroke-linecap="round" stroke-linejoin="round"/>
<path d="M13.334 11.668V12.0846" stroke="#4A5565" stroke-width="1.66667" stroke-linecap="round" stroke-linejoin="round"/>
<path d="M3.68399 9.37109C3.45077 10.2717 3.33315 11.1983 3.33399 12.1286C3.33399 15.6053 6.31899 17.4986 10.0007 17.4986C13.6823 17.4986 16.6673 15.6053 16.6673 12.1286C16.6632 11.1945 16.5248 10.2658 16.2565 9.37109" stroke="#4A5565" stroke-width="1.66667" stroke-linecap="round" stroke-linejoin="round"/>
<path d="M6.66602 11.668V12.0846" stroke="#4A5565" stroke-width="1.66667" stroke-linecap="round" stroke-linejoin="round"/>
<path d="M7.08381 7.0851C6.76381 7.9601 6.18131 8.7751 5.13047 9.16843C3.52131 9.7701 2.15047 8.92093 2.08381 8.3351C1.98964 7.50676 3.06464 2.89343 5.41714 2.50176C7.01964 2.23426 8.45964 3.20593 8.45964 4.36426C9.51363 4.09658 10.6192 4.10864 11.6671 4.39926C11.6671 3.24093 13.2038 2.23426 14.8063 2.50176C17.1588 2.89343 18.2338 7.50676 18.1396 8.3351C18.073 8.92093 16.7021 9.7701 15.093 9.16843C14.0421 8.7751 13.5471 7.9601 13.2271 7.0851" stroke="#4A5565" stroke-width="1.66667" stroke-linecap="round" stroke-linejoin="round"/>
</svg>
