<svg width="16" height="14" viewBox="0 0 16 14" fill="none" xmlns="http://www.w3.org/2000/svg">
<path d="M7.59228 5.08609V7.75276M7.59228 10.4194H7.59895M6.66916 1.68057L1.18591 11.1517C0.881769 11.677 0.729701 11.9396 0.752177 12.1552C0.77178 12.3433 0.870294 12.5141 1.0232 12.6253C1.1985 12.7528 1.50201 12.7528 2.10903 12.7528H13.0755C13.6826 12.7528 13.9861 12.7528 14.1614 12.6253C14.3143 12.5141 14.4128 12.3433 14.4324 12.1552C14.4549 11.9396 14.3028 11.677 13.9987 11.1517L8.51541 1.68057C8.21236 1.15713 8.06084 0.895409 7.86315 0.807507C7.69071 0.730831 7.49386 0.730831 7.32142 0.807507C7.12373 0.895409 6.97221 1.15713 6.66916 1.68057Z" stroke="#FF0000" stroke-width="1.5" stroke-linecap="round" stroke-linejoin="round"/>
</svg>
