<svg height="512pt" viewBox="0 0 512 512" width="512pt" xmlns="http://www.w3.org/2000/svg"><path d="m406.023438 259.089844c5.542968-11.085938 18-18.535156 30.992187-18.535156 41.347656 0 74.984375-33.636719 74.984375-74.984376v-41.726562l-125.648438-31.152344-41.835937-83.671875-57.304687 143.265625c-6.875 17.179688-23.269532 28.28125-41.773438 28.28125h-43.15625l-180.570312-180.566406-21.207032 21.207031 159.359375 159.359375h-77.046875l-82.816406-92.875 23.773438 153.230469c4.304687 26.898437.75 55.679687-10.269532 83.238281-8.886718 22.214844-13.394531 45.613282-13.394531 69.539063v86.804687h54.261719l47.550781-95.105468c7.4375-14.875 24.011719-24.871094 41.242187-24.871094h75.816407c17.152343 0 32.570312 9.53125 40.242187 24.871094l47.550782 95.105468h51.96875l14.4375-86.621094 117.222656 117.21875 21.207031-21.207031-132.371094-132.371093 5.488281-32.941407c3.800782-22.792969 10.964844-44.824219 21.296876-65.492187zm-72.691407 191.417968h-8.019531l-39.265625-78.523437c-12.78125-25.566406-38.480469-41.449219-67.066406-41.449219h-75.820313c-28.757812 0-55.476562 16.269532-68.066406 41.449219l-39.261719 78.523437h-5.726562v-56.808593c0-20.09375 3.78125-39.742188 11.246093-58.398438 13.035157-32.589843 17.199219-66.867187 12.050782-99.046875l-8.191406-52.792968 24.160156 27.101562h120.484375l157.257812 157.253906zm-101.058593-239.945312h13.160156c30.839844 0 58.167968-18.503906 69.621094-47.136719l32.503906-81.253906 18.148437 36.300781 116.300781 28.835938v18.261718c0 24.808594-20.183593 44.992188-44.992187 44.992188-24.460937 0-47.15625 13.785156-57.820313 35.117188-11.671874 23.339843-19.761718 48.226562-24.054687 73.96875l-1.96875 11.8125zm0 0"/></svg>