<svg height="512pt" viewBox="0 0 512 512" width="512pt" xmlns="http://www.w3.org/2000/svg"><path d="m422.9375 90.605469h-34.507812c-6.191407-17.460938-22.871094-30-42.429688-30h-90c-24.8125 0-45 20.1875-45 45s20.1875 45 45 45h30.3125c14.082031 18.695312 36.234375 30 59.6875 30h91c19.554688 0 36.226562 12.542969 42.421875 30h-247.207031l-210.609375-210.605469-21.210938 21.210938 189.390625 189.394531h-189.785156v120h309.785156l180.609375 180.605469 21.210938-21.210938-159.390625-159.394531h159.785156v-150.9375c0-49.109375-39.953125-89.0625-89.0625-89.0625zm-392.9375 150h121v60h-121zm151 60v-60h38.785156l60 60zm81.214844-60h159.785156v60h-99.785156zm219.785156 60h-30v-60h30zm-45-150h-91c-16.023438 0-30.496094-8.425781-38.714844-22.542969l-4.335937-7.457031h-46.949219c-8.269531 0-15-6.726563-15-15 0-8.269531 6.730469-15 15-15h90c8.269531 0 15 6.730469 15 15v15h61.9375c27.195312 0 50.15625 18.472656 56.992188 43.53125-12.171876-8.523438-26.976563-13.53125-42.929688-13.53125zm0 0"/></svg>