<?xml version="1.0" encoding="iso-8859-1"?>
<!-- Generator: Adobe Illustrator 19.0.0, SVG Export Plug-In . SVG Version: 6.00 Build 0)  -->
<svg version="1.1" id="Capa_1" xmlns="http://www.w3.org/2000/svg" xmlns:xlink="http://www.w3.org/1999/xlink" x="0px" y="0px"
	 viewBox="0 0 512 512" style="enable-background:new 0 0 512 512;" xml:space="preserve">
<g>
	<g>
		<path d="M256,0C114.833,0,0,114.844,0,256s114.833,256,256,256s256-114.844,256-256S397.167,0,256,0z M256,490.667
			C126.604,490.667,21.333,385.396,21.333,256c0-60.874,23.495-116.225,61.642-157.971l115.302,115.305h-48.923v-32
			c0-5.896-4.771-10.667-10.667-10.667h-21.333c-5.896,0-10.667,4.771-10.667,10.667c0,5.896,4.771,10.667,10.667,10.667h10.667v32
			c0,51.465,28.247,96.376,69.991,120.303c-15.943,6.186-27.324,21.59-27.324,39.697c0,23.531,19.146,42.667,42.667,42.667
			c23.521,0,42.667-19.135,42.667-42.667c0-8.289-2.475-15.97-6.582-22.523c5.664,0.707,11.396,1.19,17.249,1.19
			s11.585-0.483,17.249-1.19c-4.107,6.553-6.582,14.234-6.582,22.523c0,23.531,19.146,42.667,42.667,42.667
			c23.521,0,42.667-19.135,42.667-42.667c0-2.381-0.327-4.678-0.703-6.954l51.982,51.983
			C372.221,467.173,316.871,490.667,256,490.667z M277.354,200.25v-93.104c26.771,2.427,50.979,13.875,69.542,31.292L277.354,200.25
			z M361.083,154.375c12.417,16.802,20.479,37.01,22.458,58.958H294.75L361.083,154.375z M383.542,234.667
			c-3.161,34.987-22.01,65.266-49.155,84.613l-84.611-84.613H383.542z M341.354,384c0,11.76-9.563,21.333-21.333,21.333
			c-11.771,0-21.333-9.573-21.333-21.333c0-11.76,9.563-21.333,21.333-21.333C331.792,362.667,341.354,372.24,341.354,384z
			 M315.294,330.353c-14.87,6.828-31.203,10.98-48.607,10.98c-61.104,0-111.458-46.948-116.854-106.667h69.777L315.294,330.353z
			 M234.688,384c0,11.76-9.563,21.333-21.333,21.333c-11.771,0-21.333-9.573-21.333-21.333c0-11.76,9.563-21.333,21.333-21.333
			C225.125,362.667,234.688,372.24,234.688,384z M429.049,413.944l-79.227-79.228c33.641-25.327,55.531-65.462,55.531-110.716
			c0-76.458-62.208-138.667-138.667-138.667c-5.896,0-10.667,4.771-10.667,10.667v117.333h-27.577L98.061,82.947
			C139.805,44.816,195.142,21.333,256,21.333c129.396,0,234.667,105.271,234.667,234.667
			C490.667,316.861,467.182,372.202,429.049,413.944z"/>
	</g>
</g>
<g>
</g>
<g>
</g>
<g>
</g>
<g>
</g>
<g>
</g>
<g>
</g>
<g>
</g>
<g>
</g>
<g>
</g>
<g>
</g>
<g>
</g>
<g>
</g>
<g>
</g>
<g>
</g>
<g>
</g>
</svg>
